<mxfile host="app.diagrams.net" modified="2024-06-03T20:01:33.549Z" agent="Mozilla/5.0 (Windows NT 10.0; Win64; x64) AppleWebKit/537.36 (KHTML, like Gecko) Chrome/125.0.0.0 Safari/537.36" version="24.4.10" etag="dkVZ8VT1wTP7Ej5R6o2Y" type="github">
  <diagram name="PÃ¡gina-1" id="IngG8hAPXMR-RgVghoI_">
    <mxGraphModel>
      <root>
        <mxCell id="0" />
        <mxCell id="1" parent="0" />
      </root>
    </mxGraphModel>
  </diagram>
</mxfile>
